<svg width="119" height="56" viewBox="0 0 119 56" fill="none" xmlns="http://www.w3.org/2000/svg">
<g clip-path="url(#clip0_19_140)">
<path d="M119 0H0V56H119V0Z" fill="#272727"/>
<path d="M31.4821 40.5719C38.5014 40.5719 43.8274 37.7842 43.4239 32.6288C42.859 24.8013 23.6545 22.8919 23.251 17.5456C23.0493 14.796 26.1965 13.2685 30.8768 13.2685C33.7012 13.2685 37.6944 14.6433 41.4872 16.82L41.8503 14.1468C38.2593 13.1157 34.7894 12.6575 31.7242 12.6575C25.3491 12.6575 19.8214 14.8342 20.1442 19.3404C20.6284 25.7549 38.0979 26.8241 39.7118 33.4689C40.5995 37.3259 37.2103 39.9227 32.2083 39.9227C29.1419 39.9227 25.3088 38.6243 20.7494 35.9511L20.4267 38.6243C24.3404 39.9227 28.1332 40.5719 31.4821 40.5719Z" fill="#ECE6DB"/>
<path d="M62.3853 40.6483C65.129 40.6483 68.0744 40.19 71.1812 39.3117L70.8988 36.524C68.5989 37.7078 66.057 40.0373 63.8378 40.0373C56.2536 40.0373 50.5645 34.1563 50.5645 26.4804C50.5645 18.1566 55.5273 13.0775 63.3133 13.0775C65.6938 13.0775 68.1551 15.2161 70.9794 16.7436L71.1812 14.0322C68.1147 13.0012 65.0886 12.4665 62.2642 12.4665C53.4696 12.4665 46.5297 17.3164 46.5297 26.4804C46.5297 35.5692 53.1064 40.6483 62.3853 40.6483Z" fill="#ECE6DB"/>
<path d="M76.9499 40.0755L81.953 28.2371H94.0159L94.9036 30.3757C96.3964 33.9654 96.8806 37.135 97.3648 40.0755H99.584L88.2461 13.2685H84.2125L72.915 40.0755H76.9499ZM87.9637 13.9177L93.7738 27.7025H82.1548L87.9637 13.9177Z" fill="#ECE6DB"/>
<mask id="mask0_19_140" style="mask-type:luminance" maskUnits="userSpaceOnUse" x="14" y="23" width="95" height="9">
<path d="M14.9961 23.1259H108.122V31.5917H14.9961V23.1259Z" fill="white"/>
</mask>
<g mask="url(#mask0_19_140)">
<path d="M14.9961 23.1259H108.209V31.4879H14.9961V23.1259Z" fill="#272727"/>
</g>
<path d="M41.7608 28.4579C42.7581 28.4579 43.4088 28.0581 43.4088 27.4709C43.4088 26.1713 40.3259 26.8552 40.3259 25.8145C40.3259 25.3789 40.9816 25.12 41.6738 25.1247C42.2097 25.1247 42.7581 25.2572 43.0935 25.4374V25.1832C42.7418 25.0269 42.216 24.9004 41.6738 24.9004C40.8164 24.9004 40.0624 25.2429 40.0624 25.8241C40.0624 27.1141 43.1503 26.4255 43.1503 27.4853C43.1503 27.9399 42.5816 28.2335 41.7709 28.2335C41.177 28.2335 40.5529 28.1058 39.9893 27.8278L39.9741 28.0867C40.5264 28.3314 41.1669 28.4579 41.7608 28.4579Z" fill="#ECE6DB"/>
<path d="M49.0415 28.4579C49.5735 28.4579 50.1208 28.3218 50.4663 28.0867V27.8182C50.1409 28.0772 49.5786 28.2287 49.0465 28.2287C47.947 28.2287 47.0997 27.6523 47.0997 26.6893C47.0997 25.7405 47.947 25.1247 49.0415 25.1247C49.5319 25.1247 49.9972 25.2572 50.296 25.4672L50.3276 25.2035C49.9972 25.0126 49.5219 24.9004 49.0465 24.9004C47.7717 24.9004 46.8412 25.6331 46.8412 26.6893C46.8412 27.755 47.7717 28.4579 49.0415 28.4579Z" fill="#ECE6DB"/>
<path d="M53.5905 28.3898H53.9258C53.9523 28.3063 53.9939 28.2144 54.1276 27.9841L54.4378 27.4614H57.0301L57.3391 27.9841C57.4689 28.2144 57.5093 28.3063 57.5408 28.3898H57.8762C57.8094 28.3063 57.7476 28.2144 57.6177 27.9841L56.116 25.3646C56.0378 25.2322 55.971 25.1009 55.9294 24.9684H55.5524C55.5221 25.052 55.4805 25.145 55.3469 25.3742L53.8489 27.9841C53.7191 28.2144 53.6522 28.3063 53.5905 28.3898ZM54.5563 27.2466L55.4339 25.7071C55.5272 25.54 55.6205 25.3789 55.7125 25.2178H55.744L56.0227 25.7023L56.9053 27.2466H54.5563Z" fill="#ECE6DB"/>
<path d="M62.7095 28.4626C62.8949 28.4626 63.0399 28.4042 63.1584 28.2824L63.0915 28.0283C62.9781 28.1548 62.8545 28.2144 62.7045 28.2144C61.9252 28.2144 62.5645 26.7179 61.0514 26.7179H61.0262V26.6845H61.46C62.1257 26.6845 62.5758 26.2931 62.5758 25.8288C62.5758 25.2811 62.0791 24.9684 61.3465 24.9684H59.1513C59.1614 25.052 59.1727 25.145 59.1727 25.3742V27.9841C59.1727 28.2144 59.1614 28.3015 59.1513 28.3898H59.4615C59.4413 28.3015 59.4299 28.2144 59.4299 27.9841V26.8015C59.6115 26.7621 60.2571 26.7525 60.4689 26.7525C62.5242 26.7525 61.4801 28.4626 62.7095 28.4626ZM59.4299 26.5866V25.2035H61.3314C61.9252 25.2035 62.3174 25.4577 62.3174 25.8288C62.3174 26.2095 61.9189 26.5866 61.2797 26.5866H59.4299Z" fill="#ECE6DB"/>
<path d="M64.3407 28.3898H64.6559C64.6357 28.3063 64.6244 28.2144 64.6244 27.9841V26.7967H67.677V27.9841C67.677 28.2144 67.6669 28.3063 67.6455 28.3898H67.9607C67.9405 28.3063 67.9292 28.2144 67.9292 27.9841V25.3742C67.9292 25.145 67.9405 25.052 67.9607 24.9684H67.6455C67.6669 25.052 67.677 25.145 67.677 25.3742V26.5616H64.6244V25.3742C64.6244 25.145 64.6357 25.052 64.6559 24.9684H64.3407C64.3558 25.052 64.3672 25.145 64.3672 25.3742V27.9841C64.3672 28.2144 64.3558 28.3063 64.3407 28.3898Z" fill="#ECE6DB"/>
<path d="M69.2306 28.3898H69.566C69.5925 28.3063 69.6341 28.2144 69.7678 27.9841L70.0779 27.4614H72.6703L72.9792 27.9841C73.1091 28.2144 73.1494 28.3063 73.181 28.3898H73.5164C73.4495 28.3063 73.3877 28.2144 73.2579 27.9841L71.7562 25.3646C71.678 25.2322 71.6112 25.1009 71.5696 24.9684H71.1926C71.1623 25.052 71.1207 25.145 70.987 25.3742L69.4891 27.9841C69.3592 28.2144 69.2924 28.3063 69.2306 28.3898ZM70.1965 27.2466L71.074 25.7071C71.1673 25.54 71.2606 25.3789 71.3527 25.2178H71.3842L71.6629 25.7023L72.5455 27.2466H70.1965Z" fill="#ECE6DB"/>
<path d="M74.7864 28.3898H75.1016C75.0815 28.3063 75.0701 28.2144 75.0701 27.9841V25.4135H75.0966L76.8568 28.3898H77.09L78.8401 25.4135H78.8767V27.9841C78.8767 28.2144 78.8666 28.3063 78.8452 28.3898H79.1655C79.1453 28.3063 79.1339 28.2144 79.1339 27.9841V25.3742C79.1339 25.145 79.1453 25.052 79.1655 24.9684H78.8149L77.5704 27.0795C77.3788 27.4029 77.1884 27.7299 76.9967 28.0581H76.9501L76.3827 27.0795L75.1432 24.9684H74.7864C74.8015 25.052 74.8129 25.145 74.8129 25.3742V27.9841C74.8129 28.2144 74.8015 28.3063 74.7864 28.3898Z" fill="#ECE6DB"/>
<path d="M11.2866 27.5879H21.2122" stroke="#ECE6DB" stroke-width="1.99886"/>
<path d="M98.1853 27.3588H108.111" stroke="#ECE6DB" stroke-width="1.99886"/>
</g>
<defs>
<clipPath id="clip0_19_140">
<rect width="119" height="56" fill="white"/>
</clipPath>
</defs>
</svg>
